HIERARCHY
ROOT Hips
{
	OFFSET 0.000000 89.005402 0.000000
	CHANNELS 6 Xposition Yposition Zposition Xrotation Yrotation Zrotation
	JOINT Spine
	{
		OFFSET 0.116900 10.681000 0.373400
		CHANNELS 3 Xrotation Yrotation Zrotation
		JOINT Spine1
		{
			OFFSET 0.000000 13.840401 0.053500
			CHANNELS 3 Xrotation Yrotation Zrotation
			JOINT Spine2
			{
				OFFSET 0.000000 14.712700 -0.366200
				CHANNELS 3 Xrotation Yrotation Zrotation
				JOINT Neck
				{
					OFFSET 0.000000 35.415497 -3.314200
					CHANNELS 3 Xrotation Yrotation Zrotation
					JOINT Head
					{
						OFFSET 0.000000 16.899200 1.218300
						CHANNELS 3 Xrotation Yrotation Zrotation
						JOINT HeadTop_End
						{
							OFFSET 0.000000 22.206207 2.192500
							CHANNELS 3 Xrotation Yrotation Zrotation
							End Site
							{
								OFFSET 0.000000 22.314178 0.000000
							}
						}
					}
				}
				JOINT LeftShoulder
				{
					OFFSET 12.896400 26.716293 -4.548400
					CHANNELS 3 Xrotation Yrotation Zrotation
					JOINT LeftArm
					{
						OFFSET 19.027000 -4.857010 -1.718400
						CHANNELS 3 Xrotation Yrotation Zrotation
						JOINT LeftForeArm
						{
							OFFSET 24.179897 0.000000 0.000000
							CHANNELS 3 Xrotation Yrotation Zrotation
							JOINT LeftHand
							{
								OFFSET 27.156403 0.000000 0.000000
								CHANNELS 3 Xrotation Yrotation Zrotation
								JOINT LeftHandIndex1
								{
									OFFSET 16.441200 0.000000 0.000000
									CHANNELS 3 Xrotation Yrotation Zrotation
									JOINT LeftHandIndex2
									{
										OFFSET 4.821899 0.000000 0.000000
										CHANNELS 3 Xrotation Yrotation Zrotation
										JOINT LeftHandIndex3
										{
											OFFSET 6.386497 0.000000 0.000000
											CHANNELS 3 Xrotation Yrotation Zrotation
											JOINT LeftHandIndex4
											{
												OFFSET 5.188988 0.000000 0.000000
												CHANNELS 3 Xrotation Yrotation Zrotation
												End Site
												{
													OFFSET -0.178703 5.185913 0.000177
												}
											}
										}
									}
								}
								JOINT LeftHandThumb1
								{
									OFFSET 6.534897 -5.032593 5.900300
									CHANNELS 3 Xrotation Yrotation Zrotation
									JOINT LeftHandThumb2
									{
										OFFSET 3.818176 -2.204422 2.204423
										CHANNELS 3 Xrotation Yrotation Zrotation
										JOINT LeftHandThumb3
										{
											OFFSET 3.252098 -1.877594 1.877601
											CHANNELS 3 Xrotation Yrotation Zrotation
											JOINT LeftHandThumb4
											{
												OFFSET 5.251778 -3.032120 3.032117
												CHANNELS 3 Xrotation Yrotation Zrotation
												End Site
												{
													OFFSET 0.000023 6.780014 0.000000
												}
											}
										}
									}
								}
							}
						}
					}
				}
				JOINT RightShoulder
				{
					OFFSET -12.896300 26.716293 -4.548400
					CHANNELS 3 Xrotation Yrotation Zrotation
					JOINT RightArm
					{
						OFFSET -19.027000 -4.857010 -1.718400
						CHANNELS 3 Xrotation Yrotation Zrotation
						JOINT RightForeArm
						{
							OFFSET -24.179897 0.000000 0.000000
							CHANNELS 3 Xrotation Yrotation Zrotation
							JOINT RightHand
							{
								OFFSET -27.156403 0.000000 0.000000
								CHANNELS 3 Xrotation Yrotation Zrotation
								JOINT RightHandThumb1
								{
									OFFSET -6.591202 -4.852203 5.988100
									CHANNELS 3 Xrotation Yrotation Zrotation
									JOINT RightHandThumb2
									{
										OFFSET -3.818176 -2.204422 2.204423
										CHANNELS 3 Xrotation Yrotation Zrotation
										JOINT RightHandThumb3
										{
											OFFSET -3.252098 -1.877594 1.877601
											CHANNELS 3 Xrotation Yrotation Zrotation
											JOINT RightHandThumb4
											{
												OFFSET -5.251778 -3.032120 3.032117
												CHANNELS 3 Xrotation Yrotation Zrotation
												End Site
												{
													OFFSET -0.000023 6.780014 0.000000
												}
											}
										}
									}
								}
								JOINT RightHandIndex1
								{
									OFFSET -16.029404 0.000000 0.000000
									CHANNELS 3 Xrotation Yrotation Zrotation
									JOINT RightHandIndex2
									{
										OFFSET -5.213303 0.000000 0.000000
										CHANNELS 3 Xrotation Yrotation Zrotation
										JOINT RightHandIndex3
										{
											OFFSET -6.386528 0.000000 0.000000
											CHANNELS 3 Xrotation Yrotation Zrotation
											JOINT RightHandIndex4
											{
												OFFSET -5.189026 0.000000 0.000000
												CHANNELS 3 Xrotation Yrotation Zrotation
												End Site
												{
													OFFSET 0.236702 5.183624 0.001972
												}
											}
										}
									}
								}
							}
						}
					}
				}
			}
		}
	}
	JOINT LeftUpLeg
	{
		OFFSET 14.073000 -7.904099 -1.463000
		CHANNELS 3 Xrotation Yrotation Zrotation
		JOINT LeftLeg
		{
			OFFSET -0.109806 -34.073280 4.093200
			CHANNELS 3 Xrotation Yrotation Zrotation
			JOINT LeftFoot
			{
				OFFSET 0.109806 -29.899420 -6.319000
				CHANNELS 3 Xrotation Yrotation Zrotation
				JOINT LeftToeBase
				{
					OFFSET 1.551100 -14.988700 20.535801
					CHANNELS 3 Xrotation Yrotation Zrotation
					JOINT LeftToe_End
					{
						OFFSET 0.221200 0.570800 13.248301
						CHANNELS 3 Xrotation Yrotation Zrotation
						End Site
						{
							OFFSET 0.000000 13.262435 0.000000
						}
					}
				}
			}
		}
	}
	JOINT RightUpLeg
	{
		OFFSET -13.839300 -7.904099 -1.463000
		CHANNELS 3 Xrotation Yrotation Zrotation
		JOINT RightLeg
		{
			OFFSET 0.109694 -34.073219 4.093300
			CHANNELS 3 Xrotation Yrotation Zrotation
			JOINT RightFoot
			{
				OFFSET -0.109694 -29.899384 -6.319200
				CHANNELS 3 Xrotation Yrotation Zrotation
				JOINT RightToeBase
				{
					OFFSET -1.551100 -14.988700 20.535801
					CHANNELS 3 Xrotation Yrotation Zrotation
					JOINT RightToe_End
					{
						OFFSET -0.221200 0.570900 13.248299
						CHANNELS 3 Xrotation Yrotation Zrotation
						End Site
						{
							OFFSET 0.000000 13.262440 0.000000
						}
					}
				}
			}
		}
	}
}
MOTION
Frames: 9
Frame Time: 0.033333
4.910276 86.148613 62.751801 3.479529 -31.646145 -1.662643 4.490238 0.929783 0.466741 1.802899 0.146652 -0.146131 1.806830 0.082005 -0.137277 -5.330634 0.666308 8.801227 12.133206 3.090576 23.185820 0.000000 0.000003 -0.000004 2.529052 1.255152 17.026050 -24.322112 -52.235487 -12.152454 0.000002 -106.655890 0.000001 -5.339596 -38.624488 23.706280 5.853240 8.198723 -89.345650 6.123440 5.844746 -92.672806 2.797761 4.993586 -58.500065 -0.000000 0.000001 0.000001 -1.688176 -5.345847 -1.749923 9.175026 37.019823 3.165292 -3.969539 37.596165 22.250183 0.000001 0.000002 0.000001 0.937797 7.810901 0.554317 -29.566776 20.499618 23.504990 0.001329 93.950850 -0.001364 -72.166864 0.249127 33.508242 29.860054 10.904002 19.100462 3.489965 -32.554396 -30.342928 -8.577705 -59.813278 -30.590850 -0.000001 -0.000002 -0.000001 0.661327 1.607740 19.726691 2.340464 -4.041154 60.141325 3.287205 -4.451544 72.875113 0.000000 -0.000002 -0.000001 -20.552768 2.247369 6.940369 24.356159 -0.208266 -0.087876 -6.937815 0.369683 -1.143224 -0.281138 -0.000004 0.000000 -0.000000 -0.000001 0.000000 -2.341137 -13.038263 -13.259293 21.864378 -1.550102 -0.021065 -6.826310 -1.654941 13.363876 -9.616392 -0.231388 4.381579 0.000000 0.000001 -0.000000 
4.428987 85.919388 63.265682 2.451764 -31.036373 -2.335070 4.521213 1.568911 -0.226778 1.819632 0.419933 -0.267772 1.832111 0.354606 -0.260295 -5.649021 0.547680 8.900169 12.762257 3.712223 22.920078 0.000001 0.000000 -0.000001 2.496296 1.545344 17.080689 -25.544079 -53.736558 -12.353627 0.000003 -107.014639 0.000004 -4.320081 -37.106089 22.274061 5.853222 8.198715 -89.345636 6.123426 5.844746 -92.672792 2.797752 4.993598 -58.500044 0.000000 -0.000003 0.000001 -1.688184 -5.345867 -1.749919 9.175025 37.019837 3.165292 -3.969533 37.596141 22.250183 -0.000000 0.000001 0.000002 0.939911 7.969544 0.832655 -29.109361 20.831047 23.936451 0.000628 95.752381 -0.000626 -71.068624 2.090763 32.384273 29.860050 10.904003 19.100467 3.489965 -32.554396 -30.342917 -8.577701 -59.813271 -30.590853 -0.000001 -0.000001 -0.000001 0.661327 1.607738 19.726688 2.340466 -4.041152 60.141332 3.287212 -4.451543 72.875113 -0.000000 -0.000001 -0.000000 -19.811659 2.174880 7.184714 25.856482 -0.796935 -0.098850 -8.343189 0.345794 -1.166482 -0.281139 0.000004 0.000001 -0.000000 0.000001 0.000000 0.094520 -13.463697 -13.023511 20.924725 -1.315653 0.028946 -7.524490 -1.833496 13.881794 -9.586118 -0.220811 4.284204 -0.000000 0.000002 -0.000000 
4.040758 85.607689 63.776085 1.571208 -30.809081 -3.042029 4.415482 2.124992 -0.590647 1.805007 0.643583 -0.333239 1.824332 0.579566 -0.326557 -6.049332 0.506519 8.887070 12.842674 4.332010 22.296330 -0.000001 0.000003 -0.000002 2.462712 1.882036 17.069191 -25.606862 -55.565129 -12.191452 -0.000002 -106.014207 -0.000002 -4.938044 -36.324261 20.420240 5.853206 8.198733 -89.345643 6.123440 5.844757 -92.672826 2.797764 4.993590 -58.500058 -0.000002 0.000000 0.000001 -1.688181 -5.345833 -1.749917 9.175020 37.019813 3.165290 -3.969542 37.596155 22.250198 0.000002 -0.000001 0.000003 0.956898 8.296919 1.019059 -29.519760 22.345877 24.454188 0.000283 96.146859 -0.000313 -69.818405 2.664445 32.108026 29.860047 10.903998 19.100464 3.489962 -32.554396 -30.342921 -8.577702 -59.813278 -30.590850 -0.000001 0.000000 0.000001 0.661323 1.607737 19.726684 2.340471 -4.041149 60.141325 3.287208 -4.451544 72.875113 0.000001 -0.000001 0.000000 -19.325202 1.938322 7.551426 27.787503 -0.941853 -0.096175 -10.009076 0.366682 -1.268438 -0.281135 0.000002 0.000000 0.000000 -0.000002 0.000000 2.060473 -13.849587 -12.927089 20.121671 -0.343592 0.088816 -7.798842 -2.143353 14.891769 -10.416175 -0.231330 3.591448 0.000000 -0.000001 -0.000000 
3.745429 85.251785 64.287086 0.782253 -30.700604 -3.615037 4.188666 2.604155 -0.771370 1.784005 0.833008 -0.354987 1.808628 0.771209 -0.347668 -6.433277 0.549474 8.770214 12.312443 4.753086 21.638447 -0.000000 0.000001 0.000000 2.450231 2.126488 16.892067 -25.011191 -57.424925 -12.138365 0.000047 -104.448107 0.000046 -6.096575 -36.304658 18.802589 5.853230 8.198726 -89.345657 6.123437 5.844747 -92.672826 2.797746 4.993585 -58.500037 0.000000 0.000001 -0.000004 -1.688179 -5.345838 -1.749918 9.175019 37.019810 3.165297 -3.969539 37.596158 22.250188 0.000001 -0.000001 -0.000000 0.985534 8.639130 0.953964 -30.366447 23.944516 24.666267 0.000027 95.968809 -0.000031 -69.259477 3.608257 32.162155 29.860050 10.903997 19.100464 3.489963 -32.554396 -30.342928 -8.577713 -59.813278 -30.590846 -0.000001 0.000001 -0.000001 0.661325 1.607735 19.726683 2.340471 -4.041152 60.141332 3.287208 -4.451545 72.875120 -0.000000 -0.000002 0.000001 -18.918516 1.753426 7.771492 29.721473 -0.971903 -0.087419 -11.665751 0.393504 -1.319299 -0.281139 0.000002 0.000001 0.000000 0.000000 0.000000 3.695485 -14.160973 -12.963766 19.607561 0.335099 0.146317 -8.194002 -2.333060 15.922517 -11.250788 -0.219117 2.765248 -0.000000 0.000000 -0.000000 
3.506006 84.917892 64.797501 0.105913 -30.680626 -4.011777 3.895275 3.033484 -0.916685 1.763704 1.005915 -0.360417 1.792470 0.947076 -0.350796 -6.769143 0.582176 8.654399 11.383373 4.806946 21.201076 -0.000001 -0.000003 -0.000000 2.457570 2.223084 16.651561 -24.623710 -58.902056 -12.619214 -0.000022 -103.425989 -0.000026 -6.762964 -36.353091 18.038540 5.853216 8.198706 -89.345643 6.123432 5.844758 -92.672847 2.797759 4.993589 -58.500058 0.000001 0.000001 0.000002 -1.688184 -5.345850 -1.749923 9.175013 37.019813 3.165304 -3.969536 37.596148 22.250178 -0.000000 -0.000002 -0.000000 1.014988 8.870361 0.717530 -31.448995 25.088777 24.515864 -0.000138 95.745715 0.000128 -69.408546 4.659129 32.326582 29.860047 10.904003 19.100464 3.489967 -32.554389 -30.342921 -8.577694 -59.813278 -30.590853 -0.000003 0.000002 0.000000 0.661326 1.607738 19.726689 2.340470 -4.041152 60.141332 3.287207 -4.451543 72.875113 0.000001 0.000000 -0.000002 -18.466622 1.671533 7.825954 31.346224 -0.933571 -0.074701 -13.152554 0.414543 -1.330011 -0.281144 -0.000001 0.000002 0.000000 -0.000001 0.000000 5.071110 -14.337849 -12.988272 19.390186 0.372444 0.175507 -8.977327 -2.439081 16.398560 -11.190346 -0.193980 2.524951 -0.000000 -0.000003 0.000000 
3.283704 84.627831 65.277550 -0.448935 -30.785486 -4.280899 3.590090 3.403993 -1.078711 1.734403 1.157280 -0.364334 1.766157 1.102101 -0.351622 -7.005521 0.545008 8.591274 10.562637 4.533273 20.974756 0.000000 0.000001 0.000000 2.468179 2.234314 16.482148 -24.852417 -59.789284 -13.697477 0.000040 -103.282863 0.000043 -6.701212 -36.032523 18.204544 5.853224 8.198708 -89.345629 6.123437 5.844750 -92.672826 2.797761 4.993599 -58.500058 0.000000 0.000001 0.000003 -1.688179 -5.345847 -1.749919 9.175011 37.019806 3.165300 -3.969528 37.596148 22.250169 0.000002 0.000002 0.000002 1.035587 8.950076 0.429922 -32.664236 25.841785 24.164888 0.000494 95.477357 -0.000496 -69.714368 4.580755 32.604376 29.860050 10.904003 19.100464 3.489967 -32.554396 -30.342921 -8.577708 -59.813278 -30.590853 -0.000001 0.000003 0.000003 0.661325 1.607739 19.726689 2.340470 -4.041152 60.141325 3.287211 -4.451545 72.875113 0.000002 0.000003 -0.000000 -17.968348 1.625236 7.806238 32.639507 -0.767092 -0.056313 -14.452055 0.442571 -1.379427 -0.281132 0.000005 0.000003 -0.000000 -0.000002 0.000000 6.038344 -14.347967 -12.942786 19.744200 -0.032796 0.164571 -10.199152 -2.534147 16.047161 -10.179295 -0.160495 3.063093 -0.000000 0.000001 -0.000000 
3.067332 84.394005 65.684532 -0.921651 -30.977500 -4.481336 3.332491 3.646361 -1.218032 1.687929 1.254375 -0.357915 1.720929 1.203094 -0.342972 -7.099295 0.487983 8.545081 10.312647 4.277874 20.757256 -0.000001 -0.000000 -0.000002 2.473285 2.237778 16.401535 -25.385477 -60.189860 -15.059777 0.000045 -103.552245 0.000041 -6.349575 -35.446414 18.838481 5.853230 8.198712 -89.345636 6.123422 5.844740 -92.672819 2.797752 4.993589 -58.500058 0.000000 0.000005 0.000003 -1.688183 -5.345851 -1.749921 9.175026 37.019834 3.165297 -3.969525 37.596151 22.250164 0.000001 -0.000000 0.000003 1.048796 8.921246 0.106273 -33.869163 26.535826 23.843219 0.000354 95.016114 -0.000366 -69.761879 3.005813 33.038404 29.860047 10.904001 19.100465 3.489967 -32.554396 -30.342924 -8.577708 -59.813278 -30.590843 0.000001 -0.000002 -0.000001 0.661330 1.607741 19.726691 2.340466 -4.041153 60.141325 3.287207 -4.451544 72.875120 0.000003 0.000000 -0.000000 -17.434790 1.583763 7.775680 33.607792 -0.507724 -0.036331 -15.527598 0.479342 -1.490545 -0.281133 -0.000015 0.000001 0.000000 0.000000 0.000000 6.566756 -14.261071 -12.899999 20.613769 -0.497048 0.130182 -11.507580 -2.601895 15.245080 -9.783878 -0.108549 3.006678 0.000000 0.000002 0.000000 
2.864748 84.224266 65.978348 -1.344683 -31.197302 -4.614309 3.173304 3.688408 -1.306855 1.629367 1.264643 -0.329482 1.661268 1.217063 -0.314444 -7.066316 0.493518 8.487370 10.694522 4.425000 20.377642 -0.000000 -0.000001 -0.000001 2.475039 2.265214 16.338118 -25.711330 -60.298980 -16.328175 -0.000020 -103.773933 -0.000020 -6.109543 -34.866528 19.507539 5.853229 8.198713 -89.345657 6.123442 5.844738 -92.672833 2.797749 4.993583 -58.500037 0.000002 -0.000000 0.000001 -1.688177 -5.345853 -1.749920 9.175019 37.019827 3.165295 -3.969525 37.596155 22.250161 -0.000001 -0.000004 0.000001 1.061296 8.861281 -0.264763 -34.906098 27.418510 23.696226 0.000814 94.437679 -0.000811 -69.548060 0.798967 33.679178 29.860047 10.904000 19.100464 3.489966 -32.554396 -30.342921 -8.577704 -59.813278 -30.590850 -0.000000 -0.000002 -0.000000 0.661324 1.607737 19.726688 2.340469 -4.041153 60.141325 3.287207 -4.451543 72.875113 0.000003 -0.000001 -0.000003 -16.885285 1.570258 7.731570 34.230647 -0.238940 -0.022317 -16.316516 0.518168 -1.637205 -0.281137 -0.000003 0.000001 -0.000000 0.000001 -0.000000 6.801008 -14.189125 -12.976265 21.587358 -0.709015 0.099338 -12.503518 -2.632789 14.587908 -9.943969 -0.083156 2.626587 -0.000000 0.000003 -0.000000 
2.677746 84.111435 66.133553 -1.704136 -31.450405 -4.657557 3.117473 3.554873 -1.359043 1.575310 1.200847 -0.288489 1.604215 1.156620 -0.275178 -6.953707 0.577445 8.432607 11.400714 5.005267 19.824481 -0.000000 -0.000000 0.000001 2.478308 2.306525 16.235599 -25.649729 -60.261434 -17.266356 0.000044 -103.916656 0.000047 -6.092528 -34.414683 20.020273 5.853228 8.198716 -89.345636 6.123435 5.844744 -92.672813 2.797753 4.993582 -58.500058 0.000000 0.000001 0.000001 -1.688181 -5.345854 -1.749921 9.175025 37.019817 3.165293 -3.969532 37.596148 22.250180 0.000001 0.000001 0.000002 1.075031 8.821568 -0.628498 -35.666476 28.481704 23.701757 0.000873 94.022738 -0.000900 -69.260222 -0.924544 34.411869 29.860050 10.903999 19.100465 3.489965 -32.554396 -30.342917 -8.577704 -59.813271 -30.590843 -0.000002 0.000001 -0.000000 0.661324 1.607737 19.726691 2.340468 -4.041153 60.141332 3.287208 -4.451542 72.875106 -0.000001 -0.000003 -0.000001 -16.374011 1.591803 7.671597 34.542135 0.024423 -0.016191 -16.810392 0.563174 -1.817225 -0.281141 -0.000011 0.000002 -0.000000 -0.000002 0.000000 6.900652 -14.187239 -13.183124 22.303856 -0.612154 0.085002 -13.128710 -2.651805 14.285670 -10.120816 -0.068497 2.381519 0.000000 0.000000 -0.000000 
